<svg width="125" height="401" viewBox="0 0 125 401" fill="none" xmlns="http://www.w3.org/2000/svg">
<g clip-path="url(#clip0)">
<rect width="125" height="401" fill="white"/>
<path fill-rule="evenodd" clip-rule="evenodd" d="M43.9453 242.872C38.0314 256.652 39.0625 280.958 39.0625 280.958L88.8672 282.911C88.8672 282.911 84.3535 258.931 88.8672 244.826C90.3118 240.311 92.6242 236.267 94.9279 232.239C97.6148 227.54 100.29 222.862 101.562 217.482L101.591 217.361C104.203 206.317 104.412 205.434 103.516 194.044C102.807 185.047 102.022 181.489 100.963 176.688C100.307 173.715 99.5462 170.264 98.6328 164.747C95.7792 147.513 99.3009 136.861 104.09 122.377C105.156 119.151 106.286 115.735 107.422 112.013C111.057 100.104 115.24 89.2903 120.117 77.8334C123.74 69.3236 123.138 60.8234 122.503 51.8601C122.335 49.4856 122.165 47.0786 122.07 44.6303C121.412 27.6132 98.6328 6.54435 98.6328 6.54435C98.6328 6.54435 100.729 17.011 98.6328 23.1459C96.3932 29.6989 87.4547 36.9119 87.4547 36.9119C87.4547 36.9119 86.3519 40.3862 85.9375 42.6772C85.1611 46.9693 85.9363 50.2746 86.7354 53.6815C87.4101 56.5584 88.1019 59.5078 87.8906 63.185C87.3899 71.9013 84.251 77.8257 80.9582 84.0405C78.4262 88.8196 75.8031 93.7703 74.2187 100.294C73.2001 104.489 72.7746 107.87 72.3527 111.222C71.9044 114.784 71.4602 118.315 70.3125 122.755C67.8823 132.158 66.0362 137.361 61.996 146.193C61.996 146.193 56.3513 129.146 52.7344 118.849C54.5428 123.998 55.954 128.259 57.3652 132.521C58.7764 136.783 60.1875 141.044 61.996 146.193C61.6631 147.131 61.3647 147.919 61.0826 148.664C60.5618 150.039 60.0962 151.268 59.5703 153.029C56.9164 161.911 57.8124 168.907 58.7615 176.318C59.4523 181.711 60.1711 187.324 59.5703 194.044C59.3376 196.647 59.2081 198.991 59.0861 201.196C58.7224 207.776 58.4269 213.121 55.6641 220.412C53.6189 225.808 52.0846 228.749 48.8281 233.514C48.158 234.798 47.5567 235.868 46.9879 236.879C45.9383 238.746 44.9998 240.415 43.9453 242.872Z" fill="url(#paint0_linear)"/>
<path d="M98.6328 6.54435C98.6328 6.54435 100.729 17.011 98.6328 23.1459C96.3932 29.6989 87.4547 36.9119 87.4547 36.9119M98.6328 6.54435C98.6328 6.54435 94.1437 3.45282 90.8203 1.66153C85.4057 -1.25691 80.8663 0.199554 75.2672 1.99599C74.6079 2.20751 73.934 2.42374 73.2422 2.6381C70.5189 3.48194 68.6884 5.02152 66.9026 6.52357C64.8366 8.26129 62.8303 9.94877 59.5703 10.4506C55.8378 11.0252 53.0808 9.25551 50.3329 7.49177C47.5517 5.70661 44.7799 3.92751 41.0156 4.59122C38.6403 5.01005 37.3078 5.45419 35.1562 6.54435M98.6328 6.54435C98.6328 6.54435 121.412 27.6132 122.07 44.6303C122.165 47.0786 122.335 49.4856 122.503 51.8601C123.138 60.8234 123.74 69.3236 120.117 77.8334C115.24 89.2903 111.057 100.104 107.422 112.013C106.286 115.735 105.156 119.151 104.09 122.377C99.3009 136.861 95.7792 147.513 98.6328 164.747C99.5462 170.264 100.307 173.715 100.963 176.688C102.022 181.489 102.807 185.047 103.516 194.044C104.412 205.434 104.203 206.317 101.591 217.361M35.1562 6.54435C34.8789 9.96546 34.8789 11.9123 35.1562 15.3334C35.6642 21.5982 37.1877 25.6048 39.0778 30.5754C39.6924 32.1918 40.3458 33.9101 41.0156 35.8412C41.7471 37.9499 42.9687 41.2123 42.9687 41.2123M35.1562 6.54435C18.641 14.459 13.145 24.371 13.6719 42.6772C13.8821 49.9801 18.5547 63.1849 18.5547 63.1849C18.5547 63.1849 21.8784 70.9974 23.4375 75.8803C27.4643 88.4916 29.7314 95.8559 30.2734 109.083C30.5097 114.848 29.6622 119.311 28.8138 123.779C27.9714 128.215 27.1282 132.656 27.3437 138.38C27.7621 149.49 30.552 157.221 33.5809 165.615C35.4913 170.909 37.4969 176.467 39.0625 183.302C43.5226 202.774 48.8281 233.514 48.8281 233.514M52.7344 118.849C51.7578 112.99 53.4898 100.756 52.7344 88.5756C51.9731 76.3003 52.1061 69.1796 48.8281 57.3256C47.0435 50.872 42.9687 41.2123 42.9687 41.2123M52.7344 118.849C56.3513 129.146 61.996 146.193 61.996 146.193M52.7344 118.849C54.5428 123.998 55.954 128.259 57.3652 132.521C58.7764 136.783 60.1875 141.044 61.996 146.193M61.996 146.193C66.0362 137.361 67.8823 132.158 70.3125 122.755C71.4602 118.315 71.9044 114.784 72.3527 111.222C72.7746 107.87 73.2001 104.489 74.2187 100.294C75.8031 93.7703 78.4262 88.8196 80.9582 84.0405C84.251 77.8257 87.3899 71.9013 87.8906 63.185C88.1019 59.5078 87.4101 56.5584 86.7354 53.6815C85.9363 50.2746 85.1611 46.9693 85.9375 42.6772C86.3519 40.3862 87.4547 36.9119 87.4547 36.9119M61.996 146.193C61.6631 147.131 61.3647 147.919 61.0826 148.664C60.5618 150.039 60.0962 151.268 59.5703 153.029C56.9164 161.911 57.8124 168.907 58.7615 176.318C59.4523 181.711 60.1711 187.324 59.5703 194.044C59.3376 196.647 59.2081 198.991 59.0861 201.196C58.7224 207.776 58.4269 213.121 55.6641 220.412C53.6189 225.808 52.0846 228.749 48.8281 233.514M101.562 217.482L101.591 217.361M101.562 217.482C100.29 222.862 97.6148 227.54 94.9279 232.239C92.6242 236.267 90.3118 240.311 88.8672 244.826C84.3535 258.931 88.8672 282.911 88.8672 282.911L39.0625 280.958C39.0625 280.958 38.0314 256.652 43.9453 242.872C44.9998 240.415 45.9383 238.746 46.9879 236.879C47.5567 235.868 48.158 234.798 48.8281 233.514M101.562 217.482C101.572 217.441 101.582 217.401 101.591 217.361M87.4547 36.9119C87.4547 36.9119 78.8213 41.6697 73.2422 44.6303C71.9027 45.3411 70.8397 46.0458 69.8677 46.6903C67.6652 48.1505 65.9293 49.3014 62.5 49.5131C57.9033 49.7968 54.9949 48.1308 51.3734 46.0563C50.5689 45.5955 49.7293 45.1145 48.8281 44.6303C46.4946 43.3764 42.9687 41.2123 42.9687 41.2123" stroke="#424242" stroke-width="0.5"/>
<path fill-rule="evenodd" clip-rule="evenodd" d="M62.0301 146.878C60.2217 141.729 58.8105 137.468 57.3994 133.206C55.9882 128.944 54.577 124.682 52.7686 119.534C56.3855 129.831 62.0301 146.878 62.0301 146.878ZM73.2764 45.3152C78.8555 42.3546 87.4889 37.5968 87.4889 37.5968C87.4889 37.5968 96.4274 30.3838 98.667 23.8308C100.764 17.6959 98.667 7.2293 98.667 7.2293C98.667 7.2293 94.1779 4.13777 90.8545 2.34649C85.4399 -0.571954 80.9004 0.884506 75.3013 2.68094C74.6421 2.89246 73.9682 3.10869 73.2764 3.32305C70.5531 4.16689 68.7226 5.70647 66.9368 7.20852C64.8708 8.94624 62.8645 10.6337 59.6045 11.1355C55.872 11.7101 53.1149 9.94046 50.3671 8.17673C47.5859 6.39157 44.8141 4.61246 41.0498 5.27617C38.6744 5.695 37.342 6.13914 35.1904 7.2293C34.913 10.6504 34.913 12.5972 35.1904 16.0184C35.6984 22.2831 37.2219 26.2898 39.1119 31.2603C39.7266 32.8767 40.38 34.5951 41.0498 36.5262C41.7812 38.6348 43.0029 41.8973 43.0029 41.8973C43.0029 41.8973 46.5288 44.0613 48.8623 45.3152C49.7635 45.7995 50.6031 46.2804 51.4076 46.7413C55.0291 48.8158 57.9375 50.4817 62.5342 50.198C65.9635 49.9864 67.6994 48.8354 69.9019 47.3752C70.8739 46.7308 71.9369 46.026 73.2764 45.3152Z" fill="url(#paint1_linear)"/>
<path d="M98.667 7.2293C98.667 7.2293 100.764 17.6959 98.667 23.8308C96.4274 30.3838 87.4889 37.5968 87.4889 37.5968M98.667 7.2293C98.667 7.2293 94.1779 4.13777 90.8545 2.34649C85.4399 -0.571954 80.9004 0.884506 75.3013 2.68094C74.6421 2.89246 73.9682 3.10869 73.2764 3.32305C70.5531 4.16689 68.7226 5.70647 66.9368 7.20852C64.8708 8.94624 62.8645 10.6337 59.6045 11.1355C55.872 11.7101 53.1149 9.94046 50.3671 8.17673C47.5859 6.39157 44.8141 4.61246 41.0498 5.27617C38.6744 5.695 37.342 6.13914 35.1904 7.2293M98.667 7.2293C98.667 7.2293 121.446 28.2981 122.104 45.3152C122.199 47.7635 122.37 50.1706 122.538 52.5451C123.172 61.5083 123.774 70.0085 120.151 78.5183C115.275 89.9752 111.091 100.789 107.456 112.698C106.32 116.42 105.191 119.836 104.124 123.062C99.3351 137.546 95.8134 148.198 98.667 165.432C99.5804 170.949 100.342 174.4 100.998 177.373C102.057 182.174 102.842 185.732 103.55 194.729C104.446 206.119 104.238 207.002 101.625 218.046M35.1904 7.2293C34.913 10.6504 34.913 12.5972 35.1904 16.0184C35.6984 22.2831 37.2219 26.2898 39.1119 31.2603C39.7266 32.8767 40.38 34.5951 41.0498 36.5262C41.7812 38.6348 43.0029 41.8973 43.0029 41.8973M35.1904 7.2293C18.6752 15.1439 13.1791 25.0559 13.7061 43.3621C13.9163 50.665 18.5889 63.8699 18.5889 63.8699C18.5889 63.8699 21.9126 71.6824 23.4717 76.5652C27.4985 89.1765 29.7655 96.5409 30.3076 109.768C30.5439 115.533 29.6964 119.996 28.848 124.464C28.0056 128.9 27.1624 133.341 27.3779 139.065C27.7963 150.175 30.5862 157.906 33.6151 166.3C35.5255 171.594 37.5311 177.152 39.0967 183.987C43.5567 203.459 48.8623 234.199 48.8623 234.199M52.7686 119.534C51.792 113.675 53.5239 101.441 52.7686 89.2605C52.0073 76.9853 52.1403 69.8645 48.8623 58.0105C47.0777 51.557 43.0029 41.8973 43.0029 41.8973M52.7686 119.534C56.3855 129.831 62.0301 146.878 62.0301 146.878M52.7686 119.534C54.577 124.682 55.9882 128.944 57.3994 133.206C58.8105 137.468 60.2217 141.729 62.0301 146.878M62.0301 146.878C66.0704 138.046 67.9165 132.843 70.3467 123.44C71.4944 118.999 71.9386 115.469 72.3869 111.907C72.8088 108.555 73.2342 105.174 74.2529 100.979C75.8373 94.4553 78.4603 89.5045 80.9924 84.7255C84.2852 78.5107 87.4241 72.5862 87.9248 63.8699C88.136 60.1927 87.4443 57.2434 86.7695 54.3664C85.9705 50.9595 85.1952 47.6542 85.9717 43.3621C86.3861 41.0712 87.4889 37.5968 87.4889 37.5968M62.0301 146.878C61.6973 147.816 61.3989 148.604 61.1168 149.349C60.596 150.724 60.1304 151.953 59.6045 153.714C56.9506 162.596 57.8466 169.592 58.7957 177.003C59.4864 182.396 60.2053 188.009 59.6045 194.729C59.3718 197.332 59.2422 199.676 59.1203 201.881C58.7566 208.461 58.4611 213.806 55.6982 221.096C53.6531 226.493 52.1188 229.434 48.8623 234.199M101.597 218.167L101.625 218.046M101.597 218.167C100.324 223.547 97.649 228.225 94.9621 232.924C92.6584 236.952 90.346 240.996 88.9014 245.511C84.3877 259.616 88.9014 283.596 88.9014 283.596L39.0967 281.643C39.0967 281.643 38.0656 257.337 43.9795 243.557C45.034 241.1 45.9725 239.431 47.0221 237.564C47.5908 236.553 48.1922 235.483 48.8623 234.199M101.597 218.167C101.606 218.126 101.616 218.086 101.625 218.046M87.4889 37.5968C87.4889 37.5968 78.8555 42.3546 73.2764 45.3152C71.9369 46.026 70.8739 46.7308 69.9019 47.3752C67.6994 48.8354 65.9635 49.9864 62.5342 50.198C57.9375 50.4817 55.0291 48.8158 51.4076 46.7413C50.6031 46.2804 49.7635 45.7995 48.8623 45.3152C46.5288 44.0613 43.0029 41.8973 43.0029 41.8973" stroke="#424242" stroke-width="0.5"/>
<path fill-rule="evenodd" clip-rule="evenodd" d="M55.6982 221.096C53.6531 226.493 52.1188 229.434 48.8623 234.199C48.8623 234.199 43.5567 203.459 39.0967 183.987C37.5311 177.152 35.5255 171.594 33.6151 166.3C30.5862 157.906 27.7963 150.175 27.3779 139.065C27.1624 133.341 28.0056 128.9 28.848 124.464C29.6964 119.996 30.5439 115.533 30.3076 109.768C29.7655 96.5409 27.4985 89.1765 23.4717 76.5652C21.9126 71.6824 18.5889 63.8699 18.5889 63.8699C18.5889 63.8699 13.9163 50.665 13.7061 43.3621C13.1791 25.0559 18.6752 15.1439 35.1904 7.2293C34.913 10.6504 34.913 12.5972 35.1904 16.0184C35.6984 22.2831 37.2219 26.2898 39.1119 31.2603C39.7266 32.8767 40.38 34.5951 41.0498 36.5262C41.7812 38.6348 43.0029 41.8973 43.0029 41.8973C43.0029 41.8973 47.0777 51.557 48.8623 58.0105C51.6043 67.9263 51.9596 74.5302 52.448 83.6095C52.5435 85.3842 52.6441 87.2535 52.7686 89.2605C53.149 95.3957 52.8985 101.544 52.6808 106.885C52.4664 112.148 52.2839 116.626 52.7686 119.534C56.3855 129.831 62.0301 146.878 62.0301 146.878C61.6973 147.816 61.3989 148.604 61.1168 149.349C60.596 150.724 60.1304 151.953 59.6045 153.714C56.9506 162.596 57.8466 169.592 58.7957 177.003C59.4864 182.396 60.2053 188.009 59.6045 194.729C59.3718 197.332 59.2422 199.676 59.1203 201.881C58.7566 208.461 58.4611 213.806 55.6982 221.096Z" fill="url(#paint2_linear)"/>
<path d="M98.667 7.2293C98.667 7.2293 100.764 17.6959 98.667 23.8308C96.4274 30.3838 87.4889 37.5968 87.4889 37.5968M98.667 7.2293C98.667 7.2293 94.1779 4.13777 90.8545 2.34649C85.4399 -0.571954 80.9004 0.884506 75.3013 2.68094C74.6421 2.89246 73.9682 3.10869 73.2764 3.32305C70.5531 4.16689 68.7226 5.70647 66.9368 7.20852C64.8708 8.94624 62.8645 10.6337 59.6045 11.1355C55.872 11.7101 53.1149 9.94046 50.3671 8.17673C47.5859 6.39157 44.8141 4.61246 41.0498 5.27617C38.6744 5.695 37.342 6.13914 35.1904 7.2293M98.667 7.2293C98.667 7.2293 121.446 28.2981 122.104 45.3152C122.199 47.7635 122.37 50.1706 122.538 52.5451C123.172 61.5083 123.774 70.0085 120.151 78.5183C115.275 89.9752 111.091 100.789 107.456 112.698C106.32 116.42 105.191 119.836 104.124 123.062C99.3351 137.546 95.8134 148.198 98.667 165.432C99.5804 170.949 100.342 174.4 100.998 177.373C102.057 182.174 102.842 185.732 103.55 194.729C104.446 206.119 104.238 207.002 101.625 218.046M35.1904 7.2293C34.913 10.6504 34.913 12.5972 35.1904 16.0184C35.6984 22.2831 37.2219 26.2898 39.1119 31.2603C39.7266 32.8767 40.38 34.5951 41.0498 36.5262C41.7812 38.6348 43.0029 41.8973 43.0029 41.8973M35.1904 7.2293C18.6752 15.1439 13.1791 25.0559 13.7061 43.3621C13.9163 50.665 18.5889 63.8699 18.5889 63.8699C18.5889 63.8699 21.9126 71.6824 23.4717 76.5652C27.4985 89.1765 29.7655 96.5409 30.3076 109.768C30.5439 115.533 29.6964 119.996 28.848 124.464C28.0056 128.9 27.1624 133.341 27.3779 139.065C27.7963 150.175 30.5862 157.906 33.6151 166.3C35.5255 171.594 37.5311 177.152 39.0967 183.987C43.5567 203.459 48.8623 234.199 48.8623 234.199M52.7686 119.534C56.3855 129.831 58.4133 136.581 62.0301 146.878M52.7686 119.534C56.3855 129.831 62.0301 146.878 62.0301 146.878M52.7686 119.534C52.2839 116.626 52.4664 112.148 52.6808 106.885C52.8985 101.544 53.149 95.3957 52.7686 89.2605C52.6441 87.2535 52.5435 85.3842 52.448 83.6095C51.9596 74.5302 51.6043 67.9263 48.8623 58.0105C47.0777 51.557 43.0029 41.8973 43.0029 41.8973M62.0301 146.878C66.0704 138.046 67.9165 132.843 70.3467 123.44C71.4944 118.999 71.9386 115.469 72.3869 111.907C72.8088 108.555 73.2342 105.174 74.2529 100.979C75.8373 94.4553 78.4603 89.5045 80.9924 84.7255C84.2852 78.5107 87.4241 72.5862 87.9248 63.8699C88.136 60.1927 87.4443 57.2434 86.7695 54.3664C85.9705 50.9595 85.1952 47.6542 85.9717 43.3621C86.3861 41.0712 87.4889 37.5968 87.4889 37.5968M62.0301 146.878C61.6973 147.816 61.3989 148.604 61.1168 149.349C60.596 150.724 60.1304 151.953 59.6045 153.714C56.9506 162.596 57.8466 169.592 58.7957 177.003C59.4864 182.396 60.2053 188.009 59.6045 194.729C59.3718 197.332 59.2422 199.676 59.1203 201.881C58.7566 208.461 58.4611 213.806 55.6982 221.096C53.6531 226.493 52.1188 229.434 48.8623 234.199M101.597 218.167L101.625 218.046M101.597 218.167C100.324 223.547 97.649 228.225 94.9621 232.924C92.6584 236.952 90.346 240.996 88.9014 245.511C84.3877 259.616 88.9014 283.596 88.9014 283.596L39.0967 281.643C39.0967 281.643 38.0656 257.337 43.9795 243.557C45.034 241.1 45.9725 239.431 47.0221 237.564C47.5908 236.553 48.1922 235.483 48.8623 234.199M101.597 218.167C101.606 218.126 101.616 218.086 101.625 218.046M87.4889 37.5968C87.4889 37.5968 78.8555 42.3546 73.2764 45.3152C71.9369 46.026 70.8739 46.7308 69.9019 47.3752C67.6994 48.8354 65.9635 49.9864 62.5342 50.198C57.9375 50.4817 55.0291 48.8158 51.4076 46.7413C50.6031 46.2804 49.7635 45.7995 48.8623 45.3152C46.5288 44.0613 43.0029 41.8973 43.0029 41.8973" stroke="#424242" stroke-width="0.5"/>
<circle cx="62.5" cy="338.576" r="62.25" fill="#926613" stroke="#424242" stroke-width="0.5"/>
<circle cx="62.5" cy="338.576" r="56.3906" fill="#64460C" stroke="#424242" stroke-width="0.5"/>
<circle cx="62.5" cy="338.576" r="52.4844" fill="url(#paint3_radial)" stroke="#424242" stroke-width="0.5"/>
<path d="M51 304V327H28" stroke="#2D1E01" stroke-width="0.5"/>
<path d="M28 327H51V350H28" stroke="#2D1E01" stroke-width="0.5"/>
<path d="M28 350H51V373" stroke="#2D1E01" stroke-width="0.5"/>
<path d="M51 304V327H74V304" stroke="#2D1E01" stroke-width="0.5"/>
<path d="M74 373V350H51V373" stroke="#2D1E01" stroke-width="0.5"/>
<path d="M74 304V327H97" stroke="#2D1E01" stroke-width="0.5"/>
<path d="M97 327H74V350H97" stroke="#2D1E01" stroke-width="0.5"/>
<path d="M97 350H74V373" stroke="#2D1E01" stroke-width="0.5"/>
<circle cx="39.5001" cy="315.5" r="9.525" fill="#BD8E36" stroke="#2D1E01" stroke-width="0.5"/>
<circle cx="39.5001" cy="338.5" r="9.525" fill="#A87B26" stroke="#2D1E01" stroke-width="0.5"/>
<circle cx="39.5001" cy="361.5" r="9.525" fill="#82590E" stroke="#2D1E01" stroke-width="0.5"/>
<circle cx="62.5" cy="315.5" r="9.525" fill="#B48836" stroke="#2D1E01" stroke-width="0.5"/>
<circle cx="62.5" cy="338.5" r="9.525" fill="#9D711E" stroke="#2D1E01" stroke-width="0.5"/>
<circle cx="62.5" cy="361.5" r="9.525" fill="#76510E" stroke="#2D1E01" stroke-width="0.5"/>
<circle cx="85.5" cy="315.5" r="9.525" fill="#AA8031" stroke="#4A3408" stroke-width="0.5"/>
<circle cx="85.5" cy="338.5" r="9.525" fill="#896116" stroke="#2D1E01" stroke-width="0.5"/>
<circle cx="85.5" cy="361.5" r="9.525" fill="#6C4A0A" stroke="#2D1E01" stroke-width="0.5"/>
</g>
<defs>
<linearGradient id="paint0_linear" x1="112.305" y1="12.4037" x2="63.4766" y2="283.888" gradientUnits="userSpaceOnUse">
<stop stop-color="#E27A7A"/>
<stop offset="0.120279" stop-color="#A62323"/>
<stop offset="0.348958" stop-color="#CE6868"/>
<stop offset="0.494431" stop-color="#A62323"/>
<stop offset="0.635417" stop-color="#C45A5A"/>
<stop offset="0.777051" stop-color="#A62323"/>
<stop offset="0.859375" stop-color="#B43D3D"/>
<stop offset="1" stop-color="#A62323"/>
</linearGradient>
<linearGradient id="paint1_linear" x1="116.211" y1="28.0287" x2="19.5312" y2="23.1459" gradientUnits="userSpaceOnUse">
<stop stop-color="#661919"/>
<stop offset="0.520833" stop-color="#A44F4F"/>
<stop offset="1" stop-color="#501717"/>
</linearGradient>
<linearGradient id="paint2_linear" x1="26.3672" y1="13.3803" x2="58.5937" y2="229.201" gradientUnits="userSpaceOnUse">
<stop stop-color="#BA4343"/>
<stop offset="0.246214" stop-color="#DC5E5E"/>
<stop offset="0.429345" stop-color="#BA4343"/>
<stop offset="0.773996" stop-color="#D85B5B"/>
<stop offset="1" stop-color="#A62323"/>
</linearGradient>
<radialGradient id="paint3_radial" cx="0" cy="0" r="1" gradientUnits="userSpaceOnUse" gradientTransform="translate(62.5 338.576) rotate(90) scale(52.7344)">
<stop offset="0.817708" stop-color="#926613"/>
<stop offset="0.9999" stop-color="#926613" stop-opacity="0"/>
<stop offset="1" stop-color="#926613" stop-opacity="0"/>
</radialGradient>
<clipPath id="clip0">
<rect width="125" height="401" fill="white"/>
</clipPath>
</defs>
</svg>
