<svg width="264" height="172" viewBox="0 0 264 172" fill="none" xmlns="http://www.w3.org/2000/svg">
<rect width="264" height="172" fill="white"/>
<path d="M27.72 136.62C27.72 129.694 74.4077 124.08 132 124.08C189.592 124.08 236.28 129.694 236.28 136.62L233.64 165C233.64 168.645 188.134 171.6 132 171.6C75.8657 171.6 30.36 168.645 30.36 165L27.72 136.62Z" fill="url(#paint0_linear)"/>
<path d="M30.36 165C30.36 168.645 75.8657 171.6 132 171.6C188.134 171.6 233.64 168.645 233.64 165M30.36 165C30.36 161.355 75.8657 158.4 132 158.4C188.134 158.4 233.64 161.355 233.64 165M30.36 165L27.72 136.62C27.72 129.694 74.4077 124.08 132 124.08C189.592 124.08 236.28 129.694 236.28 136.62L233.64 165" stroke="#424242" stroke-width="0.5"/>
<path fill-rule="evenodd" clip-rule="evenodd" d="M132 171.6C188.134 171.6 233.64 168.645 233.64 165C233.64 161.355 188.134 158.4 132 158.4C75.8657 158.4 30.36 161.355 30.36 165C30.36 168.645 75.8657 171.6 132 171.6Z" fill="url(#paint1_linear)"/>
<path d="M30.36 165C30.36 168.645 75.8657 171.6 132 171.6C188.134 171.6 233.64 168.645 233.64 165M30.36 165C30.36 161.355 75.8657 158.4 132 158.4C188.134 158.4 233.64 161.355 233.64 165M30.36 165L27.72 136.62C27.72 129.694 74.4077 124.08 132 124.08C189.592 124.08 236.28 129.694 236.28 136.62L233.64 165" stroke="#424242" stroke-width="0.5"/>
<path d="M22.44 109.56C25.0227 120.013 27.06 136.62 27.06 136.62C27.06 129.694 73.7478 124.08 131.34 124.08H132.66C190.252 124.08 236.94 129.694 236.94 136.62C236.94 136.62 238.977 120.013 241.56 109.56C243.091 103.363 244.157 99.8064 245.92 93.9267L246.18 93.06C247.42 88.9212 249.48 82.5 249.48 82.5L244.86 79.86C244.86 79.86 241.723 86.6082 238.92 90.42C236.434 93.8002 232.768 97.8917 231.66 99C230.34 100.32 226.38 103.738 224.4 104.94C222.668 105.992 219.887 106.988 216.48 107.58C214.449 107.933 212.723 107.901 211.2 107.58C209.88 107.302 208.079 106.868 206.58 105.6C205.161 104.4 204.777 103.3 203.94 101.64C202.728 99.2373 202.322 97.7065 201.96 95.04C201.648 92.7413 201.851 91.4171 201.96 89.1C202.082 86.5126 202.62 82.5 202.62 82.5L198 79.2C198 79.2 194.04 84.8336 192.06 86.46C190.624 87.6398 189.734 88.2139 188.1 89.1C185.448 90.5382 183.802 91.1699 180.84 91.74C177.297 92.4219 173.185 91.9866 171.6 91.74L171.519 91.7274C170.726 91.6049 167.916 91.171 166.32 90.42C163.515 89.1 161.977 87.5483 159.72 85.14C156.244 81.431 151.8 72.6 151.8 72.6C149.157 67.8697 148.614 66.3777 146.52 61.38C144.503 56.5666 143.464 53.819 141.9 48.84C140.382 44.009 138.6 36.3 138.6 36.3H125.4C125.4 36.3 123.618 44.009 122.1 48.84C120.536 53.819 119.497 56.5666 117.48 61.38C115.386 66.3777 114.843 67.8697 112.2 72.6C112.2 72.6 107.756 81.431 104.28 85.14C102.023 87.5483 100.485 89.1 97.68 90.42C96.0239 91.1995 93.06 91.6373 92.4 91.74C90.8146 91.9866 86.7034 92.4219 83.16 91.74C80.1975 91.1699 78.552 90.5382 75.9 89.1C74.2662 88.2139 73.3762 87.6398 71.94 86.46C69.96 84.8336 66 79.2 66 79.2L61.38 82.5C61.38 82.5 61.9181 86.5126 62.04 89.1C62.1492 91.4171 62.3519 92.7413 62.04 95.04C61.6782 97.7065 61.2716 99.2373 60.06 101.64C59.2232 103.3 58.8392 104.4 57.42 105.6C55.9212 106.868 54.12 107.302 52.8 107.58C51.2766 107.901 49.5515 107.933 47.52 107.58C44.1131 106.988 41.3325 105.992 39.6 104.94C37.62 103.738 33.66 100.32 32.34 99C31.2317 97.8917 27.5658 93.8002 25.08 90.42C22.2768 86.6082 19.14 79.86 19.14 79.86L14.52 82.5C14.52 82.5 16.5797 88.9212 17.82 93.06C19.7409 99.4698 20.8349 103.064 22.44 109.56Z" fill="url(#paint2_linear)" stroke="#424242" stroke-width="0.5"/>
<circle cx="132" cy="19.8" r="19.55" fill="url(#paint3_radial)" stroke="#424242" stroke-width="0.5"/>
<circle cx="60.06" cy="73.26" r="12.29" fill="url(#paint4_radial)" stroke="#424242" stroke-width="0.5"/>
<circle cx="12.54" cy="73.26" r="12.29" fill="url(#paint5_radial)" stroke="#424242" stroke-width="0.5"/>
<circle r="12.29" transform="matrix(-1 0 0 1 203.94 73.26)" fill="url(#paint6_radial)" stroke="#424242" stroke-width="0.5"/>
<circle r="12.29" transform="matrix(-1 0 0 1 251.46 73.26)" fill="url(#paint7_radial)" stroke="#424242" stroke-width="0.5"/>
<path d="M124 75V90H109" stroke="#EEE7DA" stroke-width="0.5"/>
<path d="M109 90H124V105H109" stroke="#EEE7DA" stroke-width="0.5"/>
<path d="M109 105H124V120" stroke="#EEE7DA" stroke-width="0.5"/>
<path d="M124 75V90H139V75" stroke="#EEE7DA" stroke-width="0.5"/>
<path d="M139 120V105H124V120" stroke="#EEE7DA" stroke-width="0.5"/>
<path d="M139 75V90H154" stroke="#EEE7DA" stroke-width="0.5"/>
<path d="M154 90H139V105H154" stroke="#EEE7DA" stroke-width="0.5"/>
<path d="M154 105H139V120" stroke="#EEE7DA" stroke-width="0.5"/>
<circle cx="116.5" cy="82.5" r="6.125" fill="#ECCE83" stroke="#EEE7DA" stroke-width="0.5"/>
<circle cx="116.5" cy="97.5" r="6.125" fill="#E9C05B" stroke="#EEE7DA" stroke-width="0.5"/>
<circle cx="116.5" cy="112.5" r="6.125" fill="#DDAF3E" stroke="#EEE7DA" stroke-width="0.5"/>
<circle cx="131.5" cy="82.5" r="6.125" fill="#E6C678" stroke="#EEE7DA" stroke-width="0.5"/>
<circle cx="131.5" cy="97.5" r="6.125" fill="#E7BB4F" stroke="#EEE7DA" stroke-width="0.5"/>
<circle cx="131.5" cy="112.5" r="6.125" fill="#CF9F2A" stroke="#EEE7DA" stroke-width="0.5"/>
<circle cx="146.5" cy="82.5" r="6.125" fill="#E9C363" stroke="#EEE7DA" stroke-width="0.5"/>
<circle cx="146.5" cy="97.5" r="6.125" fill="#E2B648" stroke="#EEE7DA" stroke-width="0.5"/>
<circle cx="146.5" cy="112.5" r="6.125" fill="#C69622" stroke="#EEE7DA" stroke-width="0.5"/>
<defs>
<linearGradient id="paint0_linear" x1="27.72" y1="147.84" x2="236.28" y2="147.84" gradientUnits="userSpaceOnUse">
<stop offset="0.0989583" stop-color="#BC8A09"/>
<stop offset="0.270833" stop-color="#FBE7B4"/>
<stop offset="0.317708" stop-color="#EECF7E"/>
<stop offset="0.375" stop-color="#FCE9BA"/>
<stop offset="0.473958" stop-color="#DCB042"/>
<stop offset="0.583333" stop-color="#EABF52"/>
<stop offset="0.692708" stop-color="#EFD287"/>
<stop offset="0.8125" stop-color="#EDE7D8"/>
<stop offset="1" stop-color="#BC8A09"/>
</linearGradient>
<linearGradient id="paint1_linear" x1="232.98" y1="164.34" x2="30.36" y2="165.66" gradientUnits="userSpaceOnUse">
<stop offset="0.208333" stop-color="#4F3F19"/>
<stop offset="0.380208" stop-color="#74643B"/>
<stop offset="0.557292" stop-color="#443818"/>
</linearGradient>
<linearGradient id="paint2_linear" x1="27.06" y1="124.08" x2="237.6" y2="124.08" gradientUnits="userSpaceOnUse">
<stop stop-color="#BC8A09"/>
<stop offset="0.197917" stop-color="#EABF52"/>
<stop offset="0.302083" stop-color="#EDE4CB"/>
<stop offset="0.390625" stop-color="#EABF52"/>
<stop offset="0.536458" stop-color="#CA991D"/>
<stop offset="0.661458" stop-color="#EABF52"/>
<stop offset="0.760417" stop-color="#EEE3C6"/>
<stop offset="0.864583" stop-color="#EABF52"/>
<stop offset="1" stop-color="#C1931E"/>
</linearGradient>
<radialGradient id="paint3_radial" cx="0" cy="0" r="1" gradientUnits="userSpaceOnUse" gradientTransform="translate(126.06 14.52) rotate(38.6598) scale(25.3564)">
<stop stop-color="white"/>
<stop offset="0.59375" stop-color="#EABF52"/>
<stop offset="0.979167" stop-color="#94772E"/>
</radialGradient>
<radialGradient id="paint4_radial" cx="0" cy="0" r="1" gradientUnits="userSpaceOnUse" gradientTransform="translate(56.298 69.916) rotate(38.6598) scale(16.059)">
<stop stop-color="white"/>
<stop offset="0.59375" stop-color="#EABF52"/>
<stop offset="0.979167" stop-color="#94772E"/>
</radialGradient>
<radialGradient id="paint5_radial" cx="0" cy="0" r="1" gradientUnits="userSpaceOnUse" gradientTransform="translate(8.778 69.916) rotate(38.6598) scale(16.059)">
<stop stop-color="white"/>
<stop offset="0.59375" stop-color="#EABF52"/>
<stop offset="0.979167" stop-color="#94772E"/>
</radialGradient>
<radialGradient id="paint6_radial" cx="0" cy="0" r="1" gradientUnits="userSpaceOnUse" gradientTransform="translate(15.84 9.9) rotate(143.616) scale(15.5766)">
<stop stop-color="white"/>
<stop offset="0.59375" stop-color="#EABF52"/>
<stop offset="0.979167" stop-color="#94772E"/>
</radialGradient>
<radialGradient id="paint7_radial" cx="0" cy="0" r="1" gradientUnits="userSpaceOnUse" gradientTransform="translate(14.52 10.56) rotate(142.595) scale(14.1246)">
<stop stop-color="white"/>
<stop offset="0.59375" stop-color="#EABF52"/>
<stop offset="0.979167" stop-color="#94772E"/>
</radialGradient>
</defs>
</svg>
