<svg width="167" height="318" viewBox="0 0 167 318" fill="none" xmlns="http://www.w3.org/2000/svg">
<g clip-path="url(#clip0)">
<rect width="167" height="318" fill="transparent"/>
<path fill-rule="evenodd" clip-rule="evenodd" d="M1.5 81.5L85.5 0V56.5L44 98L28.111 91.8313L1.5 81.5Z" fill="url(#paint0_linear)"/>
<path d="M85 265.5V318M85 265.5L92 258.415M85 265.5L80 260.5M85 318L1.5 236.5M85 318L106.5 272M85 318L164.985 238.5M85 318L64 274.5M167.5 236V82M167.5 236L126 224M167.5 236L149.5 217M167.5 236L164.985 238.5M167.5 82L85.5 0M167.5 82L149.5 88.9398M85.5 0L1.5 81.5M85.5 0V56.5M85.5 0L105 45M1.5 81.5V236.5M1.5 81.5L28.111 91.8313M1.5 236.5L26 229.582M44 224.5V98M44 224.5L31.5 228.029M44 224.5L80 260.5M126 224V98M126 224L92 258.415M44 98L85.5 56.5M44 98L28.111 91.8313M85.5 56.5L89.5 60.5988M126 98L142 91.8313M126 98L89.5 60.5988M149.5 217V103L142 91.8313M149.5 217L143 228.029M142 91.8313L149.5 88.9398M31.5 228.029L20.5 213.5V106L28.111 91.8313M31.5 228.029L26 229.582M106.5 272L143 238.5H164.985M106.5 272L92 258.415M64 274.5L24 236.5L26 229.582M64 274.5L80 260.5M149.5 88.9398L105 45M105 45L89.5 60.5988" stroke="#424242" stroke-width="0.5"/>
<path fill-rule="evenodd" clip-rule="evenodd" d="M86 56.5V0L105.5 45L90 60.5988L86 56.5Z" fill="#173C74"/>
<path d="M85.5 265.5V318M85.5 265.5L92.5 258.415M85.5 265.5L80.5 260.5M85.5 318L2 236.5M85.5 318L107 272M85.5 318L165.485 238.5M85.5 318L64.5 274.5M168 236V82M168 236L126.5 224M168 236L150 217M168 236L165.485 238.5M168 82L86 0M168 82L150 88.9398M86 0L2 81.5M86 0V56.5M86 0L105.5 45M2 81.5V236.5M2 81.5L28.611 91.8313M2 236.5L26.5 229.582M44.5 224.5V98M44.5 224.5L32 228.029M44.5 224.5L80.5 260.5M126.5 224V98M126.5 224L92.5 258.415M44.5 98L86 56.5M44.5 98L28.611 91.8313M86 56.5L90 60.5988M126.5 98L142.5 91.8313M126.5 98L90 60.5988M150 217V103L142.5 91.8313M150 217L143.5 228.029M142.5 91.8313L150 88.9398M32 228.029L21 213.5V106L28.611 91.8313M32 228.029L26.5 229.582M107 272L143.5 238.5H165.485M107 272L92.5 258.415M64.5 274.5L24.5 236.5L26.5 229.582M64.5 274.5L80.5 260.5M150 88.9398L105.5 45M105.5 45L90 60.5988" stroke="#424242" stroke-width="0.5"/>
<path d="M168 82L86 0L105.5 45L150 88.9398L168 82Z" fill="#0A3270"/>
<path d="M85.5 265.5V318M85.5 265.5L92.5 258.415M85.5 265.5L80.5 260.5M85.5 318L2 236.5M85.5 318L107 272M85.5 318L165.485 238.5M85.5 318L64.5 274.5M168 236V82M168 236L126.5 224M168 236L150 217M168 236L165.485 238.5M168 82L86 0M168 82L150 88.9398M86 0L2 81.5M86 0V56.5M86 0L105.5 45M2 81.5V236.5M2 81.5L28.611 91.8313M2 236.5L26.5 229.582M44.5 224.5V98M44.5 224.5L32 228.029M44.5 224.5L80.5 260.5M126.5 224V98M126.5 224L92.5 258.415M44.5 98L86 56.5M44.5 98L28.611 91.8313M86 56.5L90 60.5988M126.5 98L142.5 91.8313M126.5 98L90 60.5988M150 217V103L142.5 91.8313M150 217L143.5 228.029M142.5 91.8313L150 88.9398M32 228.029L21 213.5V106L28.611 91.8313M32 228.029L26.5 229.582M107 272L143.5 238.5H165.485M107 272L92.5 258.415M64.5 274.5L24.5 236.5L26.5 229.582M64.5 274.5L80.5 260.5M150 88.9398L105.5 45M105.5 45L90 60.5988" stroke="#424242" stroke-width="0.5"/>
<path d="M126.5 98L142.5 91.8313L150 88.9398L105.5 45L90 60.5988L126.5 98Z" fill="#234B89"/>
<path d="M85.5 265.5V318M85.5 265.5L92.5 258.415M85.5 265.5L80.5 260.5M85.5 318L2 236.5M85.5 318L107 272M85.5 318L165.485 238.5M85.5 318L64.5 274.5M168 236V82M168 236L126.5 224M168 236L150 217M168 236L165.485 238.5M168 82L86 0M168 82L150 88.9398M86 0L2 81.5M86 0V56.5M86 0L105.5 45M2 81.5V236.5M2 81.5L28.611 91.8313M2 236.5L26.5 229.582M44.5 224.5V98M44.5 224.5L32 228.029M44.5 224.5L80.5 260.5M126.5 224V98M126.5 224L92.5 258.415M44.5 98L86 56.5M44.5 98L28.611 91.8313M86 56.5L90 60.5988M126.5 98L142.5 91.8313M126.5 98L90 60.5988M150 217V103L142.5 91.8313M150 217L143.5 228.029M142.5 91.8313L150 88.9398M32 228.029L21 213.5V106L28.611 91.8313M32 228.029L26.5 229.582M107 272L143.5 238.5H165.485M107 272L92.5 258.415M64.5 274.5L24.5 236.5L26.5 229.582M64.5 274.5L80.5 260.5M150 88.9398L105.5 45M105.5 45L90 60.5988" stroke="#424242" stroke-width="0.5"/>
<path d="M126.5 224L168 236L150 217V103L142.5 91.8313L126.5 98V224Z" fill="url(#paint1_linear)"/>
<path d="M85.5 265.5V318M85.5 265.5L92.5 258.415M85.5 265.5L80.5 260.5M85.5 318L2 236.5M85.5 318L107 272M85.5 318L165.485 238.5M85.5 318L64.5 274.5M168 236V82M168 236L126.5 224M168 236L150 217M168 236L165.485 238.5M168 82L86 0M168 82L150 88.9398M86 0L2 81.5M86 0V56.5M86 0L105.5 45M2 81.5V236.5M2 81.5L28.611 91.8313M2 236.5L26.5 229.582M44.5 224.5V98M44.5 224.5L32 228.029M44.5 224.5L80.5 260.5M126.5 224V98M126.5 224L92.5 258.415M44.5 98L86 56.5M44.5 98L28.611 91.8313M86 56.5L90 60.5988M126.5 98L142.5 91.8313M126.5 98L90 60.5988M150 217V103L142.5 91.8313M150 217L143.5 228.029M142.5 91.8313L150 88.9398M32 228.029L21 213.5V106L28.611 91.8313M32 228.029L26.5 229.582M107 272L143.5 238.5H165.485M107 272L92.5 258.415M64.5 274.5L24.5 236.5L26.5 229.582M64.5 274.5L80.5 260.5M150 88.9398L105.5 45M105.5 45L90 60.5988" stroke="#424242" stroke-width="0.5"/>
<path d="M167 236V82L149 88.9398L141.5 91.8313L149 103V217L167 236Z" fill="#28579E"/>
<path d="M84.5 265.5V318M84.5 265.5L91.5 258.415M84.5 265.5L79.5 260.5M84.5 318L1 236.5M84.5 318L106 272M84.5 318L164.485 238.5M84.5 318L63.5 274.5M167 236V82M167 236L125.5 224M167 236L149 217M167 236L164.485 238.5M167 82L85 0M167 82L149 88.9398M85 0L1 81.5M85 0V56.5M85 0L104.5 45M1 81.5V236.5M1 81.5L27.611 91.8313M1 236.5L25.5 229.582M43.5 224.5V98M43.5 224.5L31 228.029M43.5 224.5L79.5 260.5M125.5 224V98M125.5 224L91.5 258.415M43.5 98L85 56.5M43.5 98L27.611 91.8313M85 56.5L89 60.5988M125.5 98L141.5 91.8313M125.5 98L89 60.5988M149 217V103L141.5 91.8313M149 217L142.5 228.029M141.5 91.8313L149 88.9398M31 228.029L20 213.5V106L27.611 91.8313M31 228.029L25.5 229.582M106 272L142.5 238.5H164.485M106 272L91.5 258.415M63.5 274.5L23.5 236.5L25.5 229.582M63.5 274.5L79.5 260.5M149 88.9398L104.5 45M104.5 45L89 60.5988" stroke="#424242" stroke-width="0.5"/>
<path d="M107 272L85.5 318L165.485 238.5H143.5L107 272Z" fill="url(#paint2_linear)"/>
<path d="M85.5 265.5V318M85.5 265.5L92.5 258.415M85.5 265.5L80.5 260.5M85.5 318L2 236.5M85.5 318L107 272M85.5 318L165.485 238.5M85.5 318L64.5 274.5M168 236V82M168 236L126.5 224M168 236L150 217M168 236L165.485 238.5M168 82L86 0M168 82L150 88.9398M86 0L2 81.5M86 0V56.5M86 0L105.5 45M2 81.5V236.5M2 81.5L28.611 91.8313M2 236.5L26.5 229.582M44.5 224.5V98M44.5 224.5L32 228.029M44.5 224.5L80.5 260.5M126.5 224V98M126.5 224L92.5 258.415M44.5 98L86 56.5M44.5 98L28.611 91.8313M86 56.5L90 60.5988M126.5 98L142.5 91.8313M126.5 98L90 60.5988M150 217V103L142.5 91.8313M150 217L143.5 228.029M142.5 91.8313L150 88.9398M32 228.029L21 213.5V106L28.611 91.8313M32 228.029L26.5 229.582M107 272L143.5 238.5H165.485M107 272L92.5 258.415M64.5 274.5L24.5 236.5L26.5 229.582M64.5 274.5L80.5 260.5M150 88.9398L105.5 45M105.5 45L90 60.5988" stroke="#424242" stroke-width="0.5"/>
<path d="M43.5 98V224.5L79.5 260.5L84.5 265.5L91.5 258.415L125.5 224V98L89 60.5988L85 56.5L43.5 98Z" fill="url(#paint3_linear)"/>
<path d="M84.5 265.5V318M84.5 265.5L91.5 258.415M84.5 265.5L79.5 260.5M84.5 318L1 236.5M84.5 318L106 272M84.5 318L164.485 238.5M84.5 318L63.5 274.5M167 236V82M167 236L125.5 224M167 236L149 217M167 236L164.485 238.5M167 82L85 0M167 82L149 88.9398M85 0L1 81.5M85 0V56.5M85 0L104.5 45M1 81.5V236.5M1 81.5L27.611 91.8313M1 236.5L25.5 229.582M43.5 224.5V98M43.5 224.5L31 228.029M43.5 224.5L79.5 260.5M125.5 224V98M125.5 224L91.5 258.415M43.5 98L85 56.5M43.5 98L27.611 91.8313M85 56.5L89 60.5988M125.5 98L141.5 91.8313M125.5 98L89 60.5988M149 217V103L141.5 91.8313M149 217L142.5 228.029M141.5 91.8313L149 88.9398M31 228.029L20 213.5V106L27.611 91.8313M31 228.029L25.5 229.582M106 272L142.5 238.5H164.485M106 272L91.5 258.415M63.5 274.5L23.5 236.5L25.5 229.582M63.5 274.5L79.5 260.5M149 88.9398L104.5 45M104.5 45L89 60.5988" stroke="#424242" stroke-width="0.5"/>
<path d="M43.5 224.5V98L27.611 91.8313L20 106V213.5L31 228.029L43.5 224.5Z" fill="url(#paint4_linear)"/>
<path d="M84.5 265.5V318M84.5 265.5L91.5 258.415M84.5 265.5L79.5 260.5M84.5 318L1 236.5M84.5 318L106 272M84.5 318L164.485 238.5M84.5 318L63.5 274.5M167 236V82M167 236L125.5 224M167 236L149 217M167 236L164.485 238.5M167 82L85 0M167 82L149 88.9398M85 0L1 81.5M85 0V56.5M85 0L104.5 45M1 81.5V236.5M1 81.5L27.611 91.8313M1 236.5L25.5 229.582M43.5 224.5V98M43.5 224.5L31 228.029M43.5 224.5L79.5 260.5M125.5 224V98M125.5 224L91.5 258.415M43.5 98L85 56.5M43.5 98L27.611 91.8313M85 56.5L89 60.5988M125.5 98L141.5 91.8313M125.5 98L89 60.5988M149 217V103L141.5 91.8313M149 217L142.5 228.029M141.5 91.8313L149 88.9398M31 228.029L20 213.5V106L27.611 91.8313M31 228.029L25.5 229.582M106 272L142.5 238.5H164.485M106 272L91.5 258.415M63.5 274.5L23.5 236.5L25.5 229.582M63.5 274.5L79.5 260.5M149 88.9398L104.5 45M104.5 45L89 60.5988" stroke="#424242" stroke-width="0.5"/>
<path d="M1 81.5V236.5L25.5 229.582L31 228.029L20 213.5V106L27.611 91.8313L1 81.5Z" fill="url(#paint5_linear)"/>
<path d="M84.5 265.5V318M84.5 265.5L91.5 258.415M84.5 265.5L79.5 260.5M84.5 318L1 236.5M84.5 318L106 272M84.5 318L164.485 238.5M84.5 318L63.5 274.5M167 236V82M167 236L125.5 224M167 236L149 217M167 236L164.485 238.5M167 82L85 0M167 82L149 88.9398M85 0L1 81.5M85 0V56.5M85 0L104.5 45M1 81.5V236.5M1 81.5L27.611 91.8313M1 236.5L25.5 229.582M43.5 224.5V98M43.5 224.5L31 228.029M43.5 224.5L79.5 260.5M125.5 224V98M125.5 224L91.5 258.415M43.5 98L85 56.5M43.5 98L27.611 91.8313M85 56.5L89 60.5988M125.5 98L141.5 91.8313M125.5 98L89 60.5988M149 217V103L141.5 91.8313M149 217L142.5 228.029M141.5 91.8313L149 88.9398M31 228.029L20 213.5V106L27.611 91.8313M31 228.029L25.5 229.582M106 272L142.5 238.5H164.485M106 272L91.5 258.415M63.5 274.5L23.5 236.5L25.5 229.582M63.5 274.5L79.5 260.5M149 88.9398L104.5 45M104.5 45L89 60.5988" stroke="#424242" stroke-width="0.5"/>
<path d="M44.5 224.5L32 228.029L26.5 229.582L24.5 236.5L64.5 274.5L80.5 260.5L44.5 224.5Z" fill="url(#paint6_linear)"/>
<path d="M85.5 265.5V318M85.5 265.5L92.5 258.415M85.5 265.5L80.5 260.5M85.5 318L2 236.5M85.5 318L107 272M85.5 318L165.485 238.5M85.5 318L64.5 274.5M168 236V82M168 236L126.5 224M168 236L150 217M168 236L165.485 238.5M168 82L86 0M168 82L150 88.9398M86 0L2 81.5M86 0V56.5M86 0L105.5 45M2 81.5V236.5M2 81.5L28.611 91.8313M2 236.5L26.5 229.582M44.5 224.5V98M44.5 224.5L32 228.029M44.5 224.5L80.5 260.5M126.5 224V98M126.5 224L92.5 258.415M44.5 98L86 56.5M44.5 98L28.611 91.8313M86 56.5L90 60.5988M126.5 98L142.5 91.8313M126.5 98L90 60.5988M150 217V103L142.5 91.8313M150 217L143.5 228.029M142.5 91.8313L150 88.9398M32 228.029L21 213.5V106L28.611 91.8313M32 228.029L26.5 229.582M107 272L143.5 238.5H165.485M107 272L92.5 258.415M64.5 274.5L24.5 236.5L26.5 229.582M64.5 274.5L80.5 260.5M150 88.9398L105.5 45M105.5 45L90 60.5988" stroke="#424242" stroke-width="0.5"/>
<path d="M1 236.5L84.5 318L63.5 274.5L23.5 236.5L25.5 229.582L1 236.5Z" fill="url(#paint7_linear)"/>
<path d="M84.5 265.5V318M84.5 265.5L91.5 258.415M84.5 265.5L79.5 260.5M84.5 318L1 236.5M84.5 318L106 272M84.5 318L164.485 238.5M84.5 318L63.5 274.5M167 236V82M167 236L125.5 224M167 236L149 217M167 236L164.485 238.5M167 82L85 0M167 82L149 88.9398M85 0L1 81.5M85 0V56.5M85 0L104.5 45M1 81.5V236.5M1 81.5L27.611 91.8313M1 236.5L25.5 229.582M43.5 224.5V98M43.5 224.5L31 228.029M43.5 224.5L79.5 260.5M125.5 224V98M125.5 224L91.5 258.415M43.5 98L85 56.5M43.5 98L27.611 91.8313M85 56.5L89 60.5988M125.5 98L141.5 91.8313M125.5 98L89 60.5988M149 217V103L141.5 91.8313M149 217L142.5 228.029M141.5 91.8313L149 88.9398M31 228.029L20 213.5V106L27.611 91.8313M31 228.029L25.5 229.582M106 272L142.5 238.5H164.485M106 272L91.5 258.415M63.5 274.5L23.5 236.5L25.5 229.582M63.5 274.5L79.5 260.5M149 88.9398L104.5 45M104.5 45L89 60.5988" stroke="#424242" stroke-width="0.5"/>
<path d="M84.5 318V265.5L79.5 260.5L63.5 274.5L84.5 318Z" fill="url(#paint8_linear)"/>
<path d="M84.5 265.5V318M84.5 265.5L91.5 258.415M84.5 265.5L79.5 260.5M84.5 318L1 236.5M84.5 318L106 272M84.5 318L164.485 238.5M84.5 318L63.5 274.5M167 236V82M167 236L125.5 224M167 236L149 217M167 236L164.485 238.5M167 82L85 0M167 82L149 88.9398M85 0L1 81.5M85 0V56.5M85 0L104.5 45M1 81.5V236.5M1 81.5L27.611 91.8313M1 236.5L25.5 229.582M43.5 224.5V98M43.5 224.5L31 228.029M43.5 224.5L79.5 260.5M125.5 224V98M125.5 224L91.5 258.415M43.5 98L85 56.5M43.5 98L27.611 91.8313M85 56.5L89 60.5988M125.5 98L141.5 91.8313M125.5 98L89 60.5988M149 217V103L141.5 91.8313M149 217L142.5 228.029M141.5 91.8313L149 88.9398M31 228.029L20 213.5V106L27.611 91.8313M31 228.029L25.5 229.582M106 272L142.5 238.5H164.485M106 272L91.5 258.415M63.5 274.5L23.5 236.5L25.5 229.582M63.5 274.5L79.5 260.5M149 88.9398L104.5 45M104.5 45L89 60.5988" stroke="#424242" stroke-width="0.5"/>
<path d="M85.5 265.5V318L107 272L92.5 258.415L85.5 265.5Z" fill="#274E88"/>
<path d="M85.5 265.5V318M85.5 265.5L92.5 258.415M85.5 265.5L80.5 260.5M85.5 318L2 236.5M85.5 318L107 272M85.5 318L165.485 238.5M85.5 318L64.5 274.5M168 236V82M168 236L126.5 224M168 236L150 217M168 236L165.485 238.5M168 82L86 0M168 82L150 88.9398M86 0L2 81.5M86 0V56.5M86 0L105.5 45M2 81.5V236.5M2 81.5L28.611 91.8313M2 236.5L26.5 229.582M44.5 224.5V98M44.5 224.5L32 228.029M44.5 224.5L80.5 260.5M126.5 224V98M126.5 224L92.5 258.415M44.5 98L86 56.5M44.5 98L28.611 91.8313M86 56.5L90 60.5988M126.5 98L142.5 91.8313M126.5 98L90 60.5988M150 217V103L142.5 91.8313M150 217L143.5 228.029M142.5 91.8313L150 88.9398M32 228.029L21 213.5V106L28.611 91.8313M32 228.029L26.5 229.582M107 272L143.5 238.5H165.485M107 272L92.5 258.415M64.5 274.5L24.5 236.5L26.5 229.582M64.5 274.5L80.5 260.5M150 88.9398L105.5 45M105.5 45L90 60.5988" stroke="#424242" stroke-width="0.5"/>
<path d="M167 236L125.5 224L91.5 258.415L106 272L142.5 238.5H164.485L167 236Z" fill="url(#paint9_linear)"/>
<path d="M84.5 265.5V318M84.5 265.5L91.5 258.415M84.5 265.5L79.5 260.5M84.5 318L1 236.5M84.5 318L106 272M84.5 318L164.485 238.5M84.5 318L63.5 274.5M167 236V82M167 236L125.5 224M167 236L149 217M167 236L164.485 238.5M167 82L85 0M167 82L149 88.9398M85 0L1 81.5M85 0V56.5M85 0L104.5 45M1 81.5V236.5M1 81.5L27.611 91.8313M1 236.5L25.5 229.582M43.5 224.5V98M43.5 224.5L31 228.029M43.5 224.5L79.5 260.5M125.5 224V98M125.5 224L91.5 258.415M43.5 98L85 56.5M43.5 98L27.611 91.8313M85 56.5L89 60.5988M125.5 98L141.5 91.8313M125.5 98L89 60.5988M149 217V103L141.5 91.8313M149 217L142.5 228.029M141.5 91.8313L149 88.9398M31 228.029L20 213.5V106L27.611 91.8313M31 228.029L25.5 229.582M106 272L142.5 238.5H164.485M106 272L91.5 258.415M63.5 274.5L23.5 236.5L25.5 229.582M63.5 274.5L79.5 260.5M149 88.9398L104.5 45M104.5 45L89 60.5988" stroke="#424242" stroke-width="0.5"/>
<path d="M73 121V146H48" stroke="#0A3270" stroke-width="0.5"/>
<path d="M48 146H73V171H48" stroke="#0A3270" stroke-width="0.5"/>
<path d="M48 171H73V196" stroke="#0A3270" stroke-width="0.5"/>
<path d="M73 121V146H98V121" stroke="#0A3270" stroke-width="0.5"/>
<path d="M98 196V171H73V196" stroke="#0A3270" stroke-width="0.5"/>
<path d="M98 121V146H123" stroke="#0A3270" stroke-width="0.5"/>
<path d="M123 146H98V171H123" stroke="#0A3270" stroke-width="0.5"/>
<path d="M123 171H98V196" stroke="#0A3270" stroke-width="0.5"/>
<circle cx="60.5" cy="133.5" r="10.375" fill="#C8D7EE" stroke="#0A3270" stroke-width="0.5"/>
<circle cx="60.5" cy="158.5" r="10.375" fill="#8EADE0" stroke="#0A3270" stroke-width="0.5"/>
<circle cx="60.5" cy="183.5" r="10.375" fill="#6285C0" stroke="#0A3270" stroke-width="0.5"/>
<circle cx="85.5" cy="133.5" r="10.375" fill="#B3C7E8" stroke="#0A3270" stroke-width="0.5"/>
<circle cx="85.5" cy="158.5" r="10.375" fill="#81A4DD" stroke="#0A3270" stroke-width="0.5"/>
<circle cx="85.5" cy="183.5" r="10.375" fill="#5075B3" stroke="#0A3270" stroke-width="0.5"/>
<circle cx="110.5" cy="133.5" r="10.375" fill="#A0B9E2" stroke="#0A3270" stroke-width="0.5"/>
<circle cx="110.5" cy="158.5" r="10.375" fill="#7398D3" stroke="#0A3270" stroke-width="0.5"/>
<circle cx="110.5" cy="183.5" r="10.375" fill="#42649C" stroke="#0A3270" stroke-width="0.5"/>
</g>
<defs>
<linearGradient id="paint0_linear" x1="84" y1="21.5" x2="15" y2="90" gradientUnits="userSpaceOnUse">
<stop stop-color="#EDF2F9"/>
<stop offset="1" stop-color="#B4D0FB"/>
</linearGradient>
<linearGradient id="paint1_linear" x1="138.5" y1="92.5" x2="138.5" y2="253" gradientUnits="userSpaceOnUse">
<stop offset="0.5625" stop-color="#7299D6"/>
<stop offset="1" stop-color="#CEDCF1"/>
</linearGradient>
<linearGradient id="paint2_linear" x1="162" y1="238" x2="85" y2="318" gradientUnits="userSpaceOnUse">
<stop stop-color="#7098D5"/>
<stop offset="1" stop-color="#466DA8"/>
</linearGradient>
<linearGradient id="paint3_linear" x1="84" y1="0" x2="84" y2="318" gradientUnits="userSpaceOnUse">
<stop stop-color="#F8FBFF"/>
<stop offset="1" stop-color="#2F64B6"/>
</linearGradient>
<linearGradient id="paint4_linear" x1="58" y1="159" x2="17.5" y2="159" gradientUnits="userSpaceOnUse">
<stop offset="0.322917" stop-color="#3564AB"/>
<stop offset="1" stop-color="#95B7EA"/>
</linearGradient>
<linearGradient id="paint5_linear" x1="84" y1="0" x2="84" y2="318" gradientUnits="userSpaceOnUse">
<stop stop-color="#D7E2F3"/>
<stop offset="0.583333" stop-color="#4671B3"/>
</linearGradient>
<linearGradient id="paint6_linear" x1="28.5" y1="222" x2="72.5" y2="276" gradientUnits="userSpaceOnUse">
<stop stop-color="#7293C6"/>
<stop offset="1" stop-color="#245AAC"/>
</linearGradient>
<linearGradient id="paint7_linear" x1="14.5" y1="232.5" x2="88.5" y2="307.5" gradientUnits="userSpaceOnUse">
<stop stop-color="#245AAC"/>
<stop offset="1" stop-color="#BBD0F1"/>
</linearGradient>
<linearGradient id="paint8_linear" x1="70" y1="263.5" x2="84" y2="318" gradientUnits="userSpaceOnUse">
<stop stop-color="#245AAC"/>
<stop offset="1" stop-color="#B9CBE7"/>
</linearGradient>
<linearGradient id="paint9_linear" x1="148" y1="225.5" x2="100.5" y2="271.5" gradientUnits="userSpaceOnUse">
<stop stop-color="#2E4971"/>
<stop offset="1" stop-color="#4071BA"/>
</linearGradient>
<clipPath id="clip0">
<rect width="167" height="318" fill="white"/>
</clipPath>
</defs>
</svg>
