<svg width="180" height="342" viewBox="0 0 180 342" fill="none" xmlns="http://www.w3.org/2000/svg">
<g clip-path="url(#clip0)">
<rect width="180" height="342" fill="white"/>
<path d="M72.5 8.5C72.5 8.5 69 8.5 66.5 7.5L73.7155 44.5L78 52.5588C82.4838 51.4856 85.1353 51.1997 90 51L89.3226 42.5L86.5 5L84 7C84 7 82.0802 7.88655 80.5 7.80435L74.5 8.32609L72.5 8.5Z" fill="url(#paint0_linear)" style="mix-blend-mode:darken"/>
<path d="M112.5 3L115.5 8.5L106.847 39L125.5 11L129 10L112.5 3Z" fill="url(#paint1_linear)" style="mix-blend-mode:darken"/>
<path d="M118.5 174L117 170.5L110 137.5L108 134C102.169 135.86 98.7854 136.547 92.5 137L93 139.5L92.8688 141L101.5 178.5L103 178.15L116.5 175L118.5 174Z" fill="url(#paint2_linear)" style="mix-blend-mode:darken"/>
<path d="M14 137H15.5L46.5 122.5L54.5 117C51.7811 112.49 50.543 109.873 49 105L40 109L9 126L8 127L14 137Z" fill="url(#paint3_linear)" style="mix-blend-mode:darken"/>
<path d="M120.5 169L117 170.5L118.5 174L116.5 175L103 178.15L85 298L89 341.5L134 294L120.5 169Z" fill="url(#paint4_linear)" style="mix-blend-mode:darken"/>
<path fill-rule="evenodd" clip-rule="evenodd" d="M3 104.5L2.5 98H7.5L48 91L2.5 87L4.5 78V72L50.5 78.5L8.5 59L12 53L16 47.5L49.5 62.4337L21.5 39L28.5 33L34 29.1923L35 28.5L55 47.5L60.5 52.5588L43 20.5L49.5 17.5L54.5 15.3125L57.5 14L73.7155 44.5L78 52.5588C82.4838 51.4856 85.1353 51.1997 90 51L89.3226 42.5L96 3L97.5 6L101 7.94444L102 8.5L107.5 9.1875L114 10L115.5 8.5L106.847 39L125.5 11V14L126.885 15L134.5 20.5L135 20.7083L140.5 23L120.443 50L149 25.5V27.5C149 28 149.5 29 149.5 29L151.25 32.5L151.5 33C151.5 33 156 36.5 157 37C157.813 37.4065 158.626 37.152 159.17 36.774L159.5 36.5L156 31.5V30L165.5 41.5C165.5 41.5 165.455 41.545 165.378 41.608C165.2 41.755 164.85 42 164.5 42C164.287 42 163.62 41.1836 162.887 40.2849C161.898 39.0737 160.787 37.713 160.5 38C160 38.5 159.37 43.8696 160.5 45L161 45.5L162.113 46.6129C162.113 46.6129 164.5 49.5 165.5 50C166.161 50.3305 166.604 50.2241 166.828 50.1139L137.5 69.5L171.5 59L170.7 63C170.7 63 170.5 63.7175 170.5 64.5C170.5 65.2825 172.652 68.5 172.652 68.5L176 75.5L141.5 84L176 88L175.561 102.5L178 103C178 103 176 105 175.5 104.5L138.5 101L174 117.5L166.717 129L168.5 130L164.5 132.5L130 113.5L129.5 114.5L160 138L160.5 141L150 154L147.5 152.5L120 126L142.5 157L143.5 159.5L130.5 168.5L129.5 166.5L110 137.5L108 134C102.169 135.86 98.7854 136.547 92.5 137L93 139.5L92.8688 141L89.5 179.5L101.5 178.5L103 178.15L85 298L32 334L54.7353 173.5L42.5 167L43 165L64 127.5L34.5 158L33 159.5H32L20.5 148.5V147L46.5 122.5L54.5 117C51.7811 112.49 50.543 109.873 49 105L40 109L4 114.5L2.5 113.5L1.5 105L3 104.5ZM166.828 50.1139L167 50C167 50 166.943 50.0575 166.828 50.1139ZM70 175.5L61 173.5L75.5 144.032L70 175.5Z" fill="url(#paint5_linear)" style="mix-blend-mode:darken"/>
<path d="M48 91L7.5 98H2.5M48 91L2.5 87L4.5 78M48 91C48.4871 86.0357 49.0613 83.303 50.5 78.5M48 91C47.8458 96.472 47.996 99.5378 49 105M4.5 78H0V98H2.5M4.5 78V72M50.5 78.5L4.5 72M50.5 78.5L8.5 59L12 53M50.5 78.5C52.9009 73.5611 53.9817 70.4045 57.5 66M4.5 72L1 69L8.5 51.5L12 53M12 53L16 47.5M57.5 66L49.5 62.4337M57.5 66C61.2619 61.8053 63.8395 60.3673 67.5 57.5M16 47.5L12 43.5L23.5 29.5L28.5 33M16 47.5L49.5 62.4337M28.5 33L21.5 39L49.5 62.4337M28.5 33L34 29.1923M67.5 57.5L60.5 52.5588M67.5 57.5C71.4394 55.1123 73.756 54.0806 78 52.5588M34 29.1923L35 28.5L55 47.5L60.5 52.5588M34 29.1923L31 22L44 12.5L49.5 17.5M49.5 17.5L43 20.5L60.5 52.5588M49.5 17.5L54.5 15.3125M57.5 14C57.5 14 58.5 10 58 9.5C57.5 9 54 8.5 54 8.5M57.5 14L54.5 15.3125M57.5 14L73.7155 44.5M78 52.5588L73.7155 44.5M78 52.5588C82.4838 51.4856 85.1353 51.1997 90 51M54 8.5L55.5 6.5L71.5 2M54 8.5L54.5 15.3125M71.5 2C71.5 2 66 6.5 66.5 7.5M71.5 2L74.5 8.32609M66.5 7.5C69 8.5 72.5 8.5 72.5 8.5L74.5 8.32609M66.5 7.5C69.3178 21.9494 73.7155 44.5 73.7155 44.5M66.5 7.5L73.7155 44.5M86.5 5L84 7C84 7 82.0802 7.88655 80.5 7.80435M86.5 5L89.3226 42.5M86.5 5C86.5 3.875 85.6562 3.59375 84.8125 3.3125C84.5312 3.21875 84.25 3.125 84 3M84 3C83 2.5 81 1.5 81 1.5M84 3L81 1.5M81 1.5L86.5 0H95.5L101 1.5M81 1.5L80.5 7.80435M101 1.5L96 3M101 1.5V7.94444M96 3L97.5 6L101 7.94444M96 3L89.3226 42.5M115.5 8.5L114 10L107.5 9.1875M115.5 8.5L112.5 3M115.5 8.5L106.847 39M112.5 3L129 10M112.5 3L107.5 9.1875M129 10L125.5 11M129 10L126.885 15M125.5 11V14L126.885 15M125.5 11L106.847 39M140.5 23L141 22L138.5 17M140.5 23L135 20.7083M140.5 23L120.443 50M138.5 17H139.5L151 25.5M138.5 17L135 20.7083M151 25.5H149M151 25.5L149.5 29M149 25.5C149 25.5 149 27 149 27.5M149 25.5L120.443 50M149 25.5V27.5M149 27.5C149 28 149.5 29 149.5 29M159.5 36.5L156 31.5V30M159.5 36.5L159.17 36.774M159.5 36.5C159.407 36.5935 159.296 36.687 159.17 36.774M156 30L165.5 41.5M156 30L151.25 32.5M165.5 41.5C165.5 41.5 165.455 41.545 165.378 41.608M165.5 41.5L165.378 41.608M160.5 45C159.37 43.8696 160 38.5 160.5 38C160.787 37.713 161.898 39.0737 162.887 40.2849C163.62 41.1836 164.287 42 164.5 42C164.85 42 165.2 41.755 165.378 41.608M160.5 45C161.63 46.1304 161 45.5 161 45.5M160.5 45L161 45.5M167 50C167.5 49.5 166.5 45.5 166.5 45.5M167 50C167 50 166.943 50.0575 166.828 50.1139M167 50L166.828 50.1139M166.5 45.5C166.5 45.5 169 50 170 52C171 54 174 61.5 174 61.5M166.5 45.5L162.113 46.6129M174 61.5L171.5 59M174 61.5L170.7 63M171.5 59L137.5 69.5M171.5 59L170.7 63M176 75.5L176.5 73.5V68.5M176 75.5L141.5 84M176 75.5L172.652 68.5M176.5 68.5H177C177 68.5 180 86 179.5 87C179 88 178.5 88 178.5 88H176M176.5 68.5H172.652M176 88L141.5 84M176 88L175.561 102.5M175.5 104.5C176 105 178 103 178 103M175.5 104.5L138.5 101M175.5 104.5L175.561 102.5M178 103L174 117.5M178 103L175.561 102.5M174 117.5L138.5 101M174 117.5L166.717 129M164.5 132.5L168.5 130M164.5 132.5L130 113.5M164.5 132.5L166.717 129M168.5 130L165.5 134L160 138M168.5 130L166.717 129M160 138L160.5 141L150 154L147.5 152.5M160 138L129.5 114.5M147.5 152.5L142.5 157M147.5 152.5L120 126M142.5 157L143.5 159.5L130.5 168.5L129.5 166.5M142.5 157L120 126M129.5 166.5L120.5 169M129.5 166.5L110 137.5M120.5 169L117 170.5M120.5 169L134 294L89 341.5L85 298M117 170.5L118.5 174L116.5 175L103 178.15M117 170.5L110 137.5M101.5 178.5L89.5 179.5M101.5 178.5L103 178.15M101.5 178.5L92.8688 141M89.5 179.5L70 178V175.5M89.5 179.5L92.8688 141M70 175.5L61 173.5M70 175.5L75.5 144.032M61 173.5L58.5 175.5L54.7353 173.5M61 173.5L75.5 144.032M43 165L42.5 167L54.7353 173.5M43 165L34.5 158M43 165L64 127.5M34.5 158L33 159.5H32L20.5 148.5V147M34.5 158L64 127.5M20.5 147L15.5 137M20.5 147L46.5 122.5M15.5 137H14L8 127L9 126M15.5 137L46.5 122.5M9 126H6L4 114.5M9 126L40 109M4 114.5L2.5 113.5L1.5 105L3 104.5L2.5 98M4 114.5L40 109M54.7353 173.5L32 334L85 298M85 298L103 178.15M40 109L49 105M49 105C50.543 109.873 51.7811 112.49 54.5 117M46.5 122.5L54.5 117M54.5 117C57.7909 121.701 59.8311 124.057 64 127.5M64 127.5C68.7278 130.958 71.4721 132.574 76.5 135M76.5 135V142L75.5 144.032M76.5 135C82.7539 136.257 86.2569 136.672 92.5 137M92.5 137L93 139.5L92.8688 141M92.5 137C98.7854 136.547 102.169 135.86 108 134M110 137.5L108 134M108 134C113.233 131 115.85 129.247 120 126M120 126C124.251 122.072 126.191 119.408 129.5 114.5M129.5 114.5L130 113.5M130 113.5C132.218 108.218 133.174 105.261 134 100M138.5 101L134 100M134 100C134.532 94.2247 134.442 90.943 133.5 85M133.5 85L141.5 84M133.5 85C131.904 80.7083 130.949 78.3007 129 74M129 74L137.5 69.5M129 74C127.354 70.8989 126.298 69.1501 124 66M137.5 69.5L166.828 50.1139M170.7 63C170.7 63 170.5 63.7175 170.5 64.5C170.5 65.2825 172.652 68.5 172.652 68.5M161 45.5L162.113 46.6129M161 45.5L165.378 41.608M162.113 46.6129C162.113 46.6129 164.5 49.5 165.5 50C166.161 50.3305 166.604 50.2241 166.828 50.1139M149.5 29L151.25 32.5M151.25 32.5L151.5 33C151.5 33 156 36.5 157 37C157.813 37.4065 158.626 37.152 159.17 36.774M126.885 15L134.5 20.5L135 20.7083M101 7.94444L102 8.5L107.5 9.1875M74.5 8.32609L80.5 7.80435M90 51L89.3226 42.5M90 51C95.0664 51.3396 97.9124 51.6714 103 52.5588M103 52.5588L106.847 39M103 52.5588C107.968 54.3352 110.435 55.5645 114.5 58M114.5 58L120.443 50M114.5 58C118.788 60.9479 120.725 62.743 124 66M124 66L159.17 36.774" stroke="#424242" stroke-width="0.5"/>
<path d="M35 28.5L55 47.5L60.5 52.5588L43 20.5L49.5 17.5L44 12.5L31 22L34 29.1923L35 28.5Z" fill="#A951A0"/>
<path d="M58 9.5C58.5 10 57.5 14 57.5 14L73.7155 44.5L66.5 7.5C66 6.5 71.5 2 71.5 2L55.5 6.5L54 8.5C54 8.5 57.5 9 58 9.5Z" fill="#A951A0"/>
<path d="M81 1.5L84 3C84.25 3.125 84.5312 3.21875 84.8125 3.3125C85.6562 3.59375 86.5 3.875 86.5 5L89.3226 42.5L96 3L101 1.5L95.5 0H86.5L81 1.5Z" fill="#A951A0"/>
<path d="M112.5 3L115.5 8.5L106.847 39L125.5 11L129 10L112.5 3Z" fill="#A951A0"/>
<path d="M141 22L140.5 23L120.443 50L149 25.5H151L139.5 17H138.5L141 22Z" fill="#A951A0"/>
<path d="M166.5 45.5C166.5 45.5 167.5 49.5 167 50C167 50 166.943 50.0575 166.828 50.1139L137.5 69.5L171.5 59L174 61.5C174 61.5 171 54 170 52C169 50 166.5 45.5 166.5 45.5Z" fill="#A951A0"/>
<path d="M176.5 73.5L176 75.5L141.5 84L176 88H178.5C178.5 88 179 88 179.5 87C180 86 177 68.5 177 68.5H176.5V73.5Z" fill="#A951A0"/>
<path d="M178 103C178 103 176 105 175.5 104.5L138.5 101L174 117.5L178 103Z" fill="#A951A0"/>
<path d="M168.5 130L164.5 132.5L130 113.5L129.5 114.5L160 138L165.5 134L168.5 130Z" fill="#A951A0"/>
<path d="M142.5 157L147.5 152.5L120 126L142.5 157Z" fill="#A951A0"/>
<path d="M120.5 169L129.5 166.5L110 137.5L117 170.5L120.5 169Z" fill="#A951A0"/>
<path d="M89.5 179.5L101.5 178.5L92.8688 141L89.5 179.5Z" fill="#A951A0"/>
<path d="M61 173.5L70 175.5L75.5 144.032L61 173.5Z" fill="#A951A0"/>
<path d="M34.5 158L43 165L64 127.5L34.5 158Z" fill="#A951A0"/>
<path d="M15.5 137L20.5 147L46.5 122.5L15.5 137Z" fill="#A951A0"/>
<path d="M6 126H9L40 109L4 114.5L6 126Z" fill="#A951A0"/>
<path d="M0 78V98H2.5H7.5L48 91L2.5 87L4.5 78H0Z" fill="#A951A0"/>
<path d="M4.5 72L50.5 78.5L8.5 59L12 53L8.5 51.5L1 69L4.5 72Z" fill="#A951A0"/>
<path d="M12 43.5L16 47.5L49.5 62.4337L21.5 39L28.5 33L23.5 29.5L12 43.5Z" fill="#A951A0"/>
<path fill-rule="evenodd" clip-rule="evenodd" d="M57.5 14C57.5 14 58.5 10 58 9.5C57.5 9 54 8.5 54 8.5L54.5 15.3125L57.5 14ZM97.5 6L96 3L101 1.5V7.94444L97.5 6ZM114 10L107.5 9.1875L112.5 3L115.5 8.5L114 10ZM140.5 23L141 22L138.5 17L135 20.7083L140.5 23ZM126.885 15L129 10L125.5 11V14L126.885 15ZM149 27.5V25.5H151L149.5 29C149.5 29 149 28 149 27.5ZM151.5 33L151.25 32.5L156 30V31.5L159.5 36.5C159.407 36.5935 159.296 36.687 159.17 36.774C158.626 37.152 157.813 37.4065 157 37C156 36.5 151.5 33 151.5 33ZM166.828 50.1139C166.943 50.0575 167 50 167 50C167.5 49.5 166.5 45.5 166.5 45.5L162.113 46.6129C162.113 46.6129 164.5 49.5 165.5 50C166.161 50.3305 166.604 50.2241 166.828 50.1139ZM161 45.5L165.378 41.608C165.455 41.545 165.5 41.5 165.5 41.5L165.378 41.608C165.2 41.755 164.85 42 164.5 42C164.287 42 163.62 41.1836 162.887 40.2849C161.898 39.0737 160.787 37.713 160.5 38C160 38.5 159.37 43.8696 160.5 45L161 45.5ZM170.7 63L171.5 59L174 61.5L170.7 63ZM176.5 73.5L176 75.5L172.652 68.5H176.5V73.5ZM175.5 104.5C176 105 178 103 178 103L175.561 102.5L175.5 104.5ZM164.5 132.5L166.717 129L168.5 130L164.5 132.5ZM66.5 7.5C66 6.5 71.5 2 71.5 2L74.5 8.32609L72.5 8.5C72.5 8.5 69 8.5 66.5 7.5ZM81 1.5L80.5 7.80435C82.0802 7.88655 84 7 84 7L86.5 5C86.5 3.875 85.6562 3.59375 84.8125 3.3125C84.5312 3.21875 84.25 3.125 84 3L81 1.5Z" fill="#A951A0"/>
<path d="M48 91L7.5 98H2.5M48 91L2.5 87L4.5 78M48 91C48.4871 86.0357 49.0613 83.303 50.5 78.5M48 91C47.8458 96.472 47.996 99.5378 49 105M4.5 78H0V98H2.5M4.5 78V72M50.5 78.5L4.5 72M50.5 78.5L8.5 59L12 53M50.5 78.5C51.0018 77.4677 51.4459 76.5133 51.8667 75.609C53.4592 72.187 54.7171 69.4839 57.5 66M4.5 72L1 69L8.5 51.5L12 53M12 53L16 47.5M57.5 66L49.5 62.4337M57.5 66C60.3205 62.855 62.4752 61.2597 64.9198 59.4497C65.7357 58.8456 66.5839 58.2175 67.5 57.5M16 47.5L12 43.5L23.5 29.5L28.5 33M16 47.5L49.5 62.4337M28.5 33L21.5 39L49.5 62.4337M28.5 33L34 29.1923M67.5 57.5L60.5 52.5588M67.5 57.5C71.4394 55.1123 73.756 54.0806 78 52.5588M34 29.1923L35 28.5L55 47.5L60.5 52.5588M34 29.1923L31 22L44 12.5L49.5 17.5M49.5 17.5L43 20.5L60.5 52.5588M49.5 17.5L54.5 15.3125M57.5 14C57.5 14 58.5 10 58 9.5C57.5 9 54 8.5 54 8.5M57.5 14L54.5 15.3125M57.5 14L73.7155 44.5M78 52.5588L73.7155 44.5M78 52.5588C82.4838 51.4856 85.1353 51.1997 90 51M54 8.5L55.5 6.5L71.5 2M54 8.5L54.5 15.3125M71.5 2C71.5 2 66 6.5 66.5 7.5M71.5 2L74.5 8.32609M66.5 7.5C69 8.5 72.5 8.5 72.5 8.5L74.5 8.32609M66.5 7.5C69.3178 21.9494 73.7155 44.5 73.7155 44.5M66.5 7.5L73.7155 44.5M86.5 5L84 7C84 7 82.0802 7.88655 80.5 7.80435M86.5 5L89.3226 42.5M86.5 5C86.5 3.875 85.6562 3.59375 84.8125 3.3125C84.5312 3.21875 84.25 3.125 84 3M84 3C83 2.5 81 1.5 81 1.5M84 3L81 1.5M81 1.5L86.5 0H95.5L101 1.5M81 1.5L80.5 7.80435M101 1.5L96 3M101 1.5V7.94444M96 3L97.5 6L101 7.94444M96 3L89.3226 42.5M115.5 8.5L114 10L107.5 9.1875M115.5 8.5L112.5 3M115.5 8.5L106.847 39M112.5 3L129 10M112.5 3L107.5 9.1875M129 10L125.5 11M129 10L126.885 15M125.5 11V14L126.885 15M125.5 11L106.847 39M140.5 23L141 22L138.5 17M140.5 23L135 20.7083M140.5 23L120.443 50M138.5 17H139.5L151 25.5M138.5 17L135 20.7083M151 25.5H149M151 25.5L149.5 29M149 25.5C149 25.5 149 27 149 27.5M149 25.5L120.443 50M149 25.5V27.5M149 27.5C149 28 149.5 29 149.5 29M159.5 36.5L156 31.5V30M159.5 36.5C159.407 36.5935 159.296 36.687 159.17 36.774M159.5 36.5L159.17 36.774M156 30L165.5 41.5M156 30L151.25 32.5M165.5 41.5C165.5 41.5 165.455 41.545 165.378 41.608M165.5 41.5L165.378 41.608M160.5 45C159.37 43.8696 160 38.5 160.5 38C160.787 37.713 161.898 39.0737 162.887 40.2849C163.62 41.1836 164.287 42 164.5 42C164.85 42 165.2 41.755 165.378 41.608M160.5 45C161.63 46.1304 161 45.5 161 45.5M160.5 45L161 45.5M167 50C167.5 49.5 166.5 45.5 166.5 45.5M167 50C167 50 166.943 50.0575 166.828 50.1139M167 50L166.828 50.1139M166.5 45.5C166.5 45.5 169 50 170 52C171 54 174 61.5 174 61.5M166.5 45.5L162.113 46.6129M174 61.5L171.5 59M174 61.5L170.7 63M171.5 59L137.5 69.5M171.5 59L170.7 63M176 75.5L176.5 73.5V68.5M176 75.5L141.5 84M176 75.5L172.652 68.5M176.5 68.5H177C177 68.5 180 86 179.5 87C179 88 178.5 88 178.5 88H176M176.5 68.5H172.652M176 88L141.5 84M176 88L175.561 102.5M175.5 104.5C176 105 178 103 178 103M175.5 104.5L138.5 101M175.5 104.5L175.561 102.5M178 103L174 117.5M178 103L175.561 102.5M174 117.5L138.5 101M174 117.5L166.717 129M164.5 132.5L168.5 130M164.5 132.5L130 113.5M164.5 132.5L166.717 129M168.5 130L165.5 134L160 138M168.5 130L166.717 129M160 138L160.5 141L150 154L147.5 152.5M160 138L129.5 114.5M147.5 152.5L142.5 157M147.5 152.5L120 126M142.5 157L143.5 159.5L130.5 168.5L129.5 166.5M142.5 157L120 126M129.5 166.5L120.5 169M129.5 166.5L110 137.5M120.5 169L117 170.5M120.5 169L134 294L89 341.5L85 298M117 170.5L118.5 174L116.5 175L103 178.15M117 170.5L110 137.5M101.5 178.5L89.5 179.5M101.5 178.5L103 178.15M101.5 178.5L92.8688 141M89.5 179.5L70 178V175.5M89.5 179.5L92.8688 141M70 175.5L61 173.5M70 175.5L75.5 144.032M61 173.5L58.5 175.5L54.7353 173.5M61 173.5L75.5 144.032M43 165L42.5 167L54.7353 173.5M43 165L34.5 158M43 165L64 127.5M34.5 158L33 159.5H32L20.5 148.5V147M34.5 158L64 127.5M20.5 147L15.5 137M20.5 147L46.5 122.5M15.5 137H14L8 127L9 126M15.5 137L46.5 122.5M9 126H6L4 114.5M9 126L40 109M4 114.5L2.5 113.5L1.5 105L3 104.5L2.5 98M4 114.5L40 109M54.7353 173.5L32 334L85 298M85 298L103 178.15M40 109L49 105M49 105C50.543 109.873 51.7811 112.49 54.5 117M46.5 122.5L54.5 117M54.5 117C57.7909 121.701 59.8311 124.057 64 127.5M64 127.5C68.7278 130.958 71.4721 132.574 76.5 135M76.5 135V142L75.5 144.032M76.5 135C82.7539 136.257 86.2569 136.672 92.5 137M92.5 137L93 139.5L92.8688 141M92.5 137C98.7854 136.547 102.169 135.86 108 134M110 137.5L108 134M108 134C113.233 131 115.85 129.247 120 126M120 126C124.251 122.072 126.191 119.408 129.5 114.5M129.5 114.5L130 113.5M130 113.5C132.218 108.218 133.174 105.261 134 100M138.5 101L134 100M134 100C134.532 94.2247 134.442 90.943 133.5 85M133.5 85L141.5 84M133.5 85C131.904 80.7083 130.949 78.3007 129 74M129 74L137.5 69.5M129 74C127.354 70.8989 126.298 69.1501 124 66M137.5 69.5L166.828 50.1139M170.7 63C170.7 63 170.5 63.7175 170.5 64.5C170.5 65.2825 172.652 68.5 172.652 68.5M161 45.5L162.113 46.6129M161 45.5L165.378 41.608M162.113 46.6129C162.113 46.6129 164.5 49.5 165.5 50C166.161 50.3305 166.604 50.2241 166.828 50.1139M149.5 29L151.25 32.5M151.25 32.5L151.5 33C151.5 33 156 36.5 157 37C157.813 37.4065 158.626 37.152 159.17 36.774M126.885 15L134.5 20.5L135 20.7083M101 7.94444L102 8.5L107.5 9.1875M74.5 8.32609L80.5 7.80435M90 51L89.3226 42.5M90 51C95.0664 51.3396 97.9124 51.6714 103 52.5588M103 52.5588L106.847 39M103 52.5588C107.968 54.3352 110.435 55.5645 114.5 58M114.5 58L120.443 50M114.5 58C118.788 60.9479 120.725 62.743 124 66M124 66L159.17 36.774" stroke="#424242" stroke-width="0.5"/>
<g filter="url(#filter0_d)">
<circle cx="90" cy="92" r="46" fill="url(#paint6_radial)"/>
<circle cx="90" cy="92" r="45.75" stroke="#464646" stroke-width="0.5"/>
</g>
<path d="M79.3333 62V82.3333H59" stroke="#5D2B5F" stroke-width="0.5"/>
<path d="M59 82.3333H79.3333V102.667H59" stroke="#5D2B5F" stroke-width="0.5"/>
<path d="M59 102.667H79.3333V123" stroke="#5D2B5F" stroke-width="0.5"/>
<path d="M79.3334 62V82.3333H99.6667V62" stroke="#5D2B5F" stroke-width="0.5"/>
<path d="M99.6667 123V102.667H79.3334V123" stroke="#5D2B5F" stroke-width="0.5"/>
<path d="M99.6666 62V82.3333H120" stroke="#5D2B5F" stroke-width="0.5"/>
<path d="M120 82.3333H99.6666V102.667H120" stroke="#5D2B5F" stroke-width="0.5"/>
<path d="M120 102.667H99.6666V123" stroke="#5D2B5F" stroke-width="0.5"/>
<circle cx="69.1666" cy="72.1667" r="8.39167" fill="#BA62BC" stroke="#5D2B5F" stroke-width="0.5"/>
<circle cx="69.1666" cy="92.5" r="8.39167" fill="#A63AA9" stroke="#5D2B5F" stroke-width="0.5"/>
<circle cx="69.1666" cy="112.833" r="8.39167" fill="#841E86" stroke="#5D2B5F" stroke-width="0.5"/>
<circle cx="89.5" cy="72.1667" r="8.39167" fill="#B458B7" stroke="#5D2B5F" stroke-width="0.5"/>
<circle cx="89.5" cy="92.5" r="8.39167" fill="#992D9C" stroke="#5D2B5F" stroke-width="0.5"/>
<circle cx="89.5" cy="112.833" r="8.39167" fill="#761678" stroke="#5D2B5F" stroke-width="0.5"/>
<circle cx="109.833" cy="72.1667" r="8.39167" fill="#AE43B1" stroke="#6F2C71" stroke-width="0.5"/>
<circle cx="109.833" cy="92.5" r="8.39167" fill="#8E2791" stroke="#5D2B5F" stroke-width="0.5"/>
<circle cx="109.833" cy="112.833" r="8.39167" fill="#630A65" stroke="#5D2B5F" stroke-width="0.5"/>
</g>
<defs>
<filter id="filter0_d" x="34" y="36" width="112" height="112" filterUnits="userSpaceOnUse" color-interpolation-filters="sRGB">
<feFlood flood-opacity="0" result="BackgroundImageFix"/>
<feColorMatrix in="SourceAlpha" type="matrix" values="0 0 0 0 0 0 0 0 0 0 0 0 0 0 0 0 0 0 127 0"/>
<feOffset/>
<feGaussianBlur stdDeviation="5"/>
<feColorMatrix type="matrix" values="0 0 0 0 0 0 0 0 0 0 0 0 0 0 0 0 0 0 0.25 0"/>
<feBlend mode="normal" in2="BackgroundImageFix" result="effect1_dropShadow"/>
<feBlend mode="normal" in="SourceGraphic" in2="effect1_dropShadow" result="shape"/>
</filter>
<linearGradient id="paint0_linear" x1="89.7781" y1="0" x2="89.7781" y2="341.5" gradientUnits="userSpaceOnUse">
<stop offset="0.713542" stop-color="#BD49BF"/>
<stop offset="1" stop-color="#804881"/>
</linearGradient>
<linearGradient id="paint1_linear" x1="89.7781" y1="0" x2="89.7781" y2="341.5" gradientUnits="userSpaceOnUse">
<stop offset="0.713542" stop-color="#BD49BF"/>
<stop offset="1" stop-color="#804881"/>
</linearGradient>
<linearGradient id="paint2_linear" x1="89.7781" y1="0" x2="89.7781" y2="341.5" gradientUnits="userSpaceOnUse">
<stop offset="0.713542" stop-color="#BD49BF"/>
<stop offset="1" stop-color="#804881"/>
</linearGradient>
<linearGradient id="paint3_linear" x1="89.7781" y1="0" x2="89.7781" y2="341.5" gradientUnits="userSpaceOnUse">
<stop offset="0.713542" stop-color="#BD49BF"/>
<stop offset="1" stop-color="#804881"/>
</linearGradient>
<linearGradient id="paint4_linear" x1="89.7781" y1="0" x2="89.7781" y2="341.5" gradientUnits="userSpaceOnUse">
<stop offset="0.713542" stop-color="#BD49BF"/>
<stop offset="1" stop-color="#804881"/>
</linearGradient>
<linearGradient id="paint5_linear" x1="89.7781" y1="0" x2="89.7781" y2="341.5" gradientUnits="userSpaceOnUse">
<stop offset="0.713542" stop-color="#BD49BF"/>
<stop offset="1" stop-color="#804881"/>
</linearGradient>
<radialGradient id="paint6_radial" cx="0" cy="0" r="1" gradientUnits="userSpaceOnUse" gradientTransform="translate(90 92) rotate(90) scale(46)">
<stop offset="0.838542" stop-color="#B148B3"/>
<stop offset="1" stop-color="#8F4F91"/>
</radialGradient>
<clipPath id="clip0">
<rect width="180" height="342" fill="white"/>
</clipPath>
</defs>
</svg>
